<svg id="Layer_1" data-name="Layer 1" xmlns="http://www.w3.org/2000/svg" viewBox="0 0 1824.13 275.38"><defs><style>.cls-1{fill:#51247a;}.cls-2{fill:#962a8b;}.cls-3{fill:#931a3d;}.cls-4{fill:#eb602b;}.cls-5{fill:#fbb800;}</style></defs><title>think-chat-learn-logo</title><path class="cls-1" d="M396.71,364.6H363.59V345.08h90.19V364.6H420.66v84h-24Z" transform="translate(-41.6 -247.55)"/><path class="cls-1" d="M561.56,345.08V448.57H537.61V406.14h-47v42.43H466.64V345.08h23.95v40.81h47V345.08Z" transform="translate(-41.6 -247.55)"/><path class="cls-1" d="M586.1,345.08h23.95V448.57H586.1Z" transform="translate(-41.6 -247.55)"/><path class="cls-1" d="M729.51,345.08V448.57H709.85l-51.6-62.83v62.83H634.6V345.08h19.81l51.45,62.84V345.08Z" transform="translate(-41.6 -247.55)"/><path class="cls-1" d="M791.76,407.92l-13.9,14.49v26.16h-23.8V345.08h23.8v48.35l45.83-48.35H850.3l-42.87,46.13,45.39,57.36H824.88Z" transform="translate(-41.6 -247.55)"/><path class="cls-1" d="M856.22,435.27c0-8.58,6.36-14.19,14.34-14.19s14.34,5.61,14.34,14.19a14.34,14.34,0,1,1-28.68,0Z" transform="translate(-41.6 -247.55)"/><path class="cls-2" d="M892.74,396.83c0-31.2,24-53.52,56.18-53.52,17.89,0,32.82,6.51,42.58,18.33l-15.38,14.2c-7-8-15.67-12.13-26-12.13-19.36,0-33.11,13.6-33.11,33.12S930.74,430,950.1,430c10.35,0,19.07-4.14,26-12.28l15.38,14.2c-9.76,12-24.69,18.48-42.73,18.48C916.69,450.35,892.74,428,892.74,396.83Z" transform="translate(-41.6 -247.55)"/><path class="cls-2" d="M1102.53,345.08V448.57h-24V406.14h-47v42.43h-23.95V345.08h23.95v40.81h47V345.08Z" transform="translate(-41.6 -247.55)"/><path class="cls-2" d="M1195.23,426.4h-48L1138,448.57h-24.54l46.12-103.49h23.66l46.27,103.49H1204.4Zm-7.53-18.19-16.42-39.62-16.41,39.62Z" transform="translate(-41.6 -247.55)"/><path class="cls-2" d="M1256.59,364.6h-33.11V345.08h90.18V364.6h-33.12v84h-24Z" transform="translate(-41.6 -247.55)"/><path class="cls-1" d="M1314.41,435.27c0-8.58,6.35-14.19,14.34-14.19s14.34,5.61,14.34,14.19a14.34,14.34,0,1,1-28.68,0Z" transform="translate(-41.6 -247.55)"/><path class="cls-1" d="M1360.39,345.08h23.95v84h51.89v19.51h-75.84Z" transform="translate(-41.6 -247.55)"/><path class="cls-1" d="M1529.82,429.35v19.22h-80.14V345.08h78.21V364.3h-54.4v22.48h48V405.4h-48v24Z" transform="translate(-41.6 -247.55)"/><path class="cls-1" d="M1617.05,426.4h-48l-9.17,22.17h-24.54l46.13-103.49h23.65l46.28,103.49h-25.14Zm-7.54-18.19-16.41-39.62-16.41,39.62Z" transform="translate(-41.6 -247.55)"/><path class="cls-1" d="M1728.08,448.57l-20-28.82h-22v28.82h-23.95V345.08h44.8c27.64,0,44.94,14.35,44.94,37.56,0,15.52-7.83,26.9-21.29,32.67l23.21,33.26Zm-22.47-84h-19.52v36.07h19.52c14.63,0,22-6.8,22-18C1727.64,371.25,1720.24,364.6,1705.61,364.6Z" transform="translate(-41.6 -247.55)"/><path class="cls-1" d="M1865.72,345.08V448.57h-19.66l-51.6-62.83v62.83h-23.65V345.08h19.81l51.45,62.84V345.08Z" transform="translate(-41.6 -247.55)"/><polygon class="cls-1" points="130.68 50.1 130.82 50.19 131.03 0 44.05 49.75 87.27 74.93 130.68 50.1"/><polygon class="cls-2" points="131.03 0 130.82 50.19 173.91 75.29 217.33 50.46 131.03 0"/><polygon class="cls-1" points="260.22 225.89 260.34 125.67 216.92 150.5 216.71 200.53 216.71 200.53 260.22 225.89"/><polygon class="cls-2" points="43.43 199.81 43.64 149.79 0.42 124.61 0 224.83 43.59 199.9 43.43 199.81"/><polygon class="cls-1" points="86.45 275.03 86.66 225 86.65 225 43.59 199.9 0 224.83 86.45 275.03"/><polygon class="cls-2" points="216.71 200.53 173.3 225.36 173.09 275.38 260.22 225.89 216.71 200.53"/><line class="cls-3" x1="130.08" y1="200.17" x2="130.21" y2="200.25"/><polygon class="cls-4" points="54.97 193.36 91.57 214.69 128.47 193.59 128.65 151.22 54.97 193.36"/><polygon class="cls-5" points="97.6 132.99 91.92 129.68 55.02 150.78 55.02 150.78 54.84 193.29 128.64 151.08 97.6 132.99"/><polygon class="cls-5" points="165.55 129.98 165.73 87.46 129.11 66.13 128.76 151.02 165.55 129.98"/><polygon class="cls-4" points="92.1 87.16 91.92 129.67 128.65 151.07 128.99 66.06 92.1 87.16"/><polygon class="cls-5" points="128.78 151.15 128.76 151.14 128.65 151.08 128.65 151.08 128.65 151.09 128.65 151.22 128.47 193.59 128.47 193.59 128.48 193.59 128.59 193.66 165.21 215 165.21 214.99 202.1 193.9 202.1 193.89 128.78 151.15"/><polygon class="cls-4" points="128.78 151.15 202.1 193.89 202.28 151.38 165.68 130.05 128.78 151.15"/></svg>