<svg id="Layer_1" data-name="Layer 1" xmlns="http://www.w3.org/2000/svg" viewBox="0 0 1274.79 275.38"><defs><style>.cls-1{fill:#51247a;}.cls-2{fill:#962a8b;}.cls-3{fill:#931a3d;}.cls-4{fill:#eb602b;}.cls-5{fill:#fbb800;}</style></defs><title>think-chat-learn-logo</title><path class="cls-1" d="M388.55,378.64H367.63V366.31h57v12.33H403.67v53H388.55Z" transform="translate(-41.6 -247.55)"/><path class="cls-1" d="M492.67,366.31v65.37H477.54v-26.8h-29.7v26.8H432.71V366.31h15.13v25.78h29.7V366.31Z" transform="translate(-41.6 -247.55)"/><path class="cls-1" d="M508.17,366.31H523.3v65.37H508.17Z" transform="translate(-41.6 -247.55)"/><path class="cls-1" d="M598.75,366.31v65.37H586.33L553.74,392v39.69H538.8V366.31h12.51L583.81,406V366.31Z" transform="translate(-41.6 -247.55)"/><path class="cls-1" d="M638.06,406l-8.78,9.15v16.53h-15V366.31h15v30.54l29-30.54H675L648,395.45l28.67,36.23H659Z" transform="translate(-41.6 -247.55)"/><path class="cls-1" d="M678.77,423.28a9.06,9.06,0,0,1,18.12,0,9.06,9.06,0,1,1-18.12,0Z" transform="translate(-41.6 -247.55)"/><path class="cls-2" d="M701.84,399c0-19.71,15.13-33.81,35.49-33.81,11.3,0,20.73,4.11,26.89,11.58l-9.71,9a21,21,0,0,0-16.44-7.66c-12.23,0-20.91,8.59-20.91,20.92s8.68,20.91,20.91,20.91a20.82,20.82,0,0,0,16.44-7.75l9.71,9c-6.16,7.56-15.59,11.67-27,11.67C717,432.8,701.84,418.7,701.84,399Z" transform="translate(-41.6 -247.55)"/><path class="cls-2" d="M834.35,366.31v65.37H819.22v-26.8H789.53v26.8H774.4V366.31h15.13v25.78h29.69V366.31Z" transform="translate(-41.6 -247.55)"/><path class="cls-2" d="M892.9,417.67H862.55l-5.79,14h-15.5l29.13-65.37h15l29.23,65.37H898.69Zm-4.76-11.48-10.37-25-10.36,25Z" transform="translate(-41.6 -247.55)"/><path class="cls-2" d="M931.65,378.64H910.74V366.31h57v12.33H946.78v53H931.65Z" transform="translate(-41.6 -247.55)"/><path class="cls-1" d="M968.17,423.28a9.06,9.06,0,0,1,18.11,0,9.06,9.06,0,1,1-18.11,0Z" transform="translate(-41.6 -247.55)"/><path class="cls-1" d="M997.21,366.31h15.13v53h32.77v12.33h-47.9Z" transform="translate(-41.6 -247.55)"/><path class="cls-1" d="M1104.22,419.54v12.14h-50.61V366.31H1103v12.14h-34.37v14.2H1099v11.76h-30.35v15.13Z" transform="translate(-41.6 -247.55)"/><path class="cls-1" d="M1159.32,417.67H1129l-5.79,14h-15.5l29.13-65.37h14.94L1181,431.68h-15.87Zm-4.77-11.48-10.36-25-10.37,25Z" transform="translate(-41.6 -247.55)"/><path class="cls-1" d="M1229.45,431.68l-12.61-18.21h-13.91v18.21H1187.8V366.31h28.29c17.47,0,28.39,9.06,28.39,23.72,0,9.81-5,17-13.45,20.64l14.67,21Zm-14.2-53h-12.32v22.78h12.32c9.25,0,13.92-4.29,13.92-11.39S1224.5,378.64,1215.25,378.64Z" transform="translate(-41.6 -247.55)"/><path class="cls-1" d="M1316.38,366.31v65.37H1304L1271.37,392v39.69h-14.94V366.31H1269L1301.44,406V366.31Z" transform="translate(-41.6 -247.55)"/><polygon class="cls-1" points="130.68 50.1 130.82 50.19 131.03 0 44.05 49.75 87.27 74.93 130.68 50.1"/><polygon class="cls-2" points="131.03 0 130.82 50.19 173.91 75.29 217.33 50.46 131.03 0"/><polygon class="cls-1" points="260.22 225.89 260.34 125.67 216.92 150.5 216.71 200.53 216.71 200.53 260.22 225.89"/><polygon class="cls-2" points="43.43 199.81 43.64 149.79 0.42 124.61 0 224.83 43.59 199.9 43.43 199.81"/><polygon class="cls-1" points="86.45 275.03 86.66 225 86.65 225 43.59 199.9 0 224.83 86.45 275.03"/><polygon class="cls-2" points="216.71 200.53 173.3 225.36 173.09 275.38 260.22 225.89 216.71 200.53"/><line class="cls-3" x1="130.08" y1="200.17" x2="130.21" y2="200.25"/><polygon class="cls-4" points="54.97 193.36 91.57 214.69 128.47 193.59 128.65 151.22 54.97 193.36"/><polygon class="cls-5" points="97.6 132.99 91.92 129.68 55.02 150.78 55.02 150.78 54.84 193.29 128.64 151.08 97.6 132.99"/><polygon class="cls-5" points="165.55 129.98 165.73 87.46 129.11 66.13 128.76 151.02 165.55 129.98"/><polygon class="cls-4" points="92.1 87.16 91.92 129.67 128.65 151.07 128.99 66.06 92.1 87.16"/><polygon class="cls-5" points="128.78 151.15 128.76 151.14 128.65 151.08 128.65 151.08 128.65 151.09 128.65 151.22 128.47 193.59 128.47 193.59 128.48 193.59 128.59 193.66 165.21 215 165.21 214.99 202.1 193.9 202.1 193.89 128.78 151.15"/><polygon class="cls-4" points="128.78 151.15 202.1 193.89 202.28 151.38 165.68 130.05 128.78 151.15"/></svg>