<svg id="Layer_1" data-name="Layer 1" xmlns="http://www.w3.org/2000/svg" viewBox="0 0 298.28 42.5"><defs><style>.cls-1,.cls-2,.cls-3,.cls-4,.cls-5{isolation:isolate;}.cls-2,.cls-3,.cls-4,.cls-5{font-size:24px;font-family:Montserrat-Bold, Montserrat;font-weight:700;}.cls-2,.cls-3,.cls-7{fill:#51247a;}.cls-3{letter-spacing:-0.02em;}.cls-4,.cls-5,.cls-8{fill:#962a8b;}.cls-5{letter-spacing:-0.06em;}.cls-6{letter-spacing:-0.03em;}.cls-9{fill:none;}.cls-10{fill:#eb602b;}.cls-11{fill:#fbb800;}</style></defs><title>think-chat-learn-logo</title><g id="Logo_Title" data-name="Logo Title"><g id="Layer_1-2" data-name="Layer 1"><g id="THINK.CHAT.LEARN" class="cls-1"><text class="cls-2" transform="translate(53 30.5)">THINK</text><text class="cls-3" transform="translate(132.25 30.5)">.</text><text class="cls-4" transform="translate(138.06 30.5)">CH</text><text class="cls-5" transform="translate(175.04 30.5)">A<tspan class="cls-6" x="16.85" y="0">T</tspan></text><text class="cls-2" transform="translate(205.98 30.5)">.LEARN</text></g></g></g><g id="Logo_Icon_Resizing_will_break_" data-name="Logo Icon Resizing will break "><g id="Group_284" data-name="Group 284"><path id="Path_216" data-name="Path 216" class="cls-7" d="M547.67,370.15h0l0-7.74-13.43,7.67L541,374Z" transform="translate(-527.5 -362.42)"/><path id="Path_217" data-name="Path 217" class="cls-8" d="M547.72,362.42l0,7.75,6.65,3.87,6.7-3.83Z" transform="translate(-527.5 -362.42)"/><path id="Path_218" data-name="Path 218" class="cls-7" d="M567.66,397.28l0-15.47-6.7,3.83,0,7.72h0Z" transform="translate(-527.5 -362.42)"/><path id="Path_219" data-name="Path 219" class="cls-8" d="M534.2,393.25l0-7.72-6.67-3.88-.06,15.47,6.72-3.85Z" transform="translate(-527.5 -362.42)"/><path id="Path_220" data-name="Path 220" class="cls-7" d="M540.84,404.86l0-7.72h0l-6.65-3.87-6.72,3.85Z" transform="translate(-527.5 -362.42)"/><path id="Path_221" data-name="Path 221" class="cls-8" d="M560.94,393.36l-6.7,3.84,0,7.72,13.45-7.65Z" transform="translate(-527.5 -362.42)"/><line id="Line_138" data-name="Line 138" class="cls-9" x1="20.08" y1="30.89" x2="20.1" y2="30.9"/></g><path id="Path_222" data-name="Path 222" class="cls-10" d="M536,392.26l5.65,3.29,5.69-3.26,0-6.53Z" transform="translate(-527.5 -362.42)"/><path id="Path_223" data-name="Path 223" class="cls-11" d="M542.56,382.94l-.88-.51L536,385.69h0l0,6.56,11.39-6.52Z" transform="translate(-527.5 -362.42)"/><path id="Path_224" data-name="Path 224" class="cls-11" d="M553.05,382.48l0-6.56-5.65-3.3,0,13.1Z" transform="translate(-527.5 -362.42)"/><path id="Path_225" data-name="Path 225" class="cls-10" d="M541.71,375.87l0,6.56,5.67,3.3.06-13.12Z" transform="translate(-527.5 -362.42)"/><path id="Path_226" data-name="Path 226" class="cls-11" d="M547.37,385.75h0v0l0,6.54h0L553,395.6h0l5.69-3.26h0Z" transform="translate(-527.5 -362.42)"/><path id="Path_227" data-name="Path 227" class="cls-10" d="M547.37,385.74l11.32,6.6,0-6.56-5.64-3.29Z" transform="translate(-527.5 -362.42)"/></g></svg>